# xmcd CD database file
#
# Track frame offsets:
#	150
#	25844
#	43893
#	60987
#	86426
#	108286
#	123572
#	142582
#	163872
#	186647
#	208712
#	226605
#	239738
#	254660
#
# Disc length: 3779 seconds
#
# Revision: 0
# Processed by: cddbd v1.5.1PL0 Copyright (c) Steve Scherf et al.
# Submitted via: CDex 1.51
#
DISCID=c20ec10e
DTITLE=Lou Simon - Live
DYEAR=2003
DGENRE=Blues
TTITLE0=Me and Bobby McGee
TTITLE1=Trouble in Mind
TTITLE2=Give Me All You Can
TTITLE3=No More Chains
TTITLE4=Crying Like A Baby
TTITLE5=I'll Be Good
TTITLE6=I Run to Daddy
TTITLE7=Black Rat
TTITLE8=One More Chance
TTITLE9=Ain't That Easy
TTITLE10=Respect
TTITLE11=Get That Motor Rolling
TTITLE12=Falling
TTITLE13=Unchain My Heart
EXTD=YEAR: 2003
EXTT0=
EXTT1=
EXTT2=
EXTT3=
EXTT4=
EXTT5=
EXTT6=
EXTT7=
EXTT8=
EXTT9=
EXTT10=
EXTT11=
EXTT12=
EXTT13=
PLAYORDER=
